<?xml version="1.0" encoding="UTF-8" standalone="no"?>
<svg
   version="1.1"
   width="1024"
   height="500"
   id="svg48"
   sodipodi:docname="system-bridge-feature.svg"
   inkscape:version="1.1 (c68e22c387, 2021-05-23)"
   xmlns:inkscape="http://www.inkscape.org/namespaces/inkscape"
   xmlns:sodipodi="http://sodipodi.sourceforge.net/DTD/sodipodi-0.dtd"
   xmlns="http://www.w3.org/2000/svg"
   xmlns:svg="http://www.w3.org/2000/svg"
   xmlns:rdf="http://www.w3.org/1999/02/22-rdf-syntax-ns#"
   xmlns:cc="http://creativecommons.org/ns#"
   xmlns:dc="http://purl.org/dc/elements/1.1/">
  <metadata
     id="metadata52">
    <rdf:RDF>
      <cc:Work
         rdf:about="">
        <dc:format>image/svg+xml</dc:format>
        <dc:type
           rdf:resource="http://purl.org/dc/dcmitype/StillImage" />
      </cc:Work>
    </rdf:RDF>
  </metadata>
  <sodipodi:namedview
     pagecolor="#ffffff"
     bordercolor="#666666"
     borderopacity="1"
     objecttolerance="10"
     gridtolerance="10"
     guidetolerance="10"
     inkscape:pageopacity="0"
     inkscape:pageshadow="2"
     inkscape:window-width="1968"
     inkscape:window-height="1425"
     id="namedview50"
     showgrid="false"
     inkscape:zoom="0.65625"
     inkscape:cx="508.95238"
     inkscape:cy="453.33333"
     inkscape:window-x="570"
     inkscape:window-y="73"
     inkscape:window-maximized="0"
     inkscape:current-layer="g46"
     inkscape:document-rotation="0"
     inkscape:pagecheckerboard="0"
     fit-margin-top="0"
     fit-margin-left="0"
     fit-margin-right="0"
     fit-margin-bottom="0" />
  <defs
     id="defs25">
    <linearGradient
       x1="5.2617998"
       y1="14.63092"
       x2="75.286247"
       y2="65.917107"
       gradientUnits="userSpaceOnUse"
       id="color-1"
       gradientTransform="matrix(15.577229,0,0,15.577229,-46.039745,-194.54011)">
      <stop
         offset="0"
         stop-color="#000000"
         stop-opacity="0.3"
         id="stop2" />
      <stop
         offset="1"
         stop-color="#000000"
         stop-opacity="0"
         id="stop4" />
    </linearGradient>
    <filter
       id="dropshadow-base">
      <feColorMatrix
         type="matrix"
         values="0 0 0 0 0  0 0 0 0 0  0 0 0 0 0  0 0 0 .8 0"
         id="feColorMatrix7" />
      <feOffset
         dx="0"
         dy="1"
         id="feOffset9" />
      <feGaussianBlur
         stdDeviation="1"
         id="feGaussianBlur11"
         result="result1" />
      <feComposite
         in="SourceGraphic"
         in2="result1"
         id="feComposite13" />
    </filter>
    <filter
       id="dropshadow-banner"
       x="-0.1"
       y="-0.1"
       width="1.2"
       height="1.3">
      <feColorMatrix
         type="matrix"
         values="0 0 0 0 0  0 0 0 0 0  0 0 0 0 0  0 0 0 .4 0"
         id="feColorMatrix16" />
      <feOffset
         dx="0"
         dy="1"
         id="feOffset18" />
      <feGaussianBlur
         stdDeviation="0.5"
         id="feGaussianBlur20"
         result="result1" />
      <feComposite
         in="SourceGraphic"
         in2="result1"
         id="feComposite22" />
    </filter>
  </defs>
  <g
     fill="none"
     fill-rule="nonzero"
     stroke="none"
     stroke-width="none"
     stroke-linecap="butt"
     stroke-linejoin="miter"
     stroke-miterlimit="10"
     stroke-dasharray="none"
     stroke-dashoffset="0"
     font-family="none"
     font-weight="none"
     font-size="none"
     text-anchor="none"
     style="mix-blend-mode:normal"
     id="g46"
     transform="translate(-2,-2)">
    <path
       d="M 48.545459,508 C 22.839091,508 2.0000002,494.00891 2.0000002,476.75 V 39.250003 c 0,-17.258905 20.8391678,-31.2500032 46.5454588,-31.2500032 H 979.45454 C 1005.1609,7.9999998 1026,21.991098 1026,39.250003 V 476.75 c 0,17.25891 -20.8392,31.25 -46.54546,31.25 z"
       id="base 1 5"
       fill="#512da8"
       stroke-width="19.0692" />
    <path
       d="M 35.924516,272.18732 V 219.1157 H 88.994889 V 33.36908 h 53.070371 l 89.97501,89.97501 c 22.53869,7.88893 46.41932,12.85377 71.47856,14.91417 l 10.37522,0.66811 c 4.55696,0.21247 9.14461,0.32026 13.76045,0.32026 72.44144,0 138.14312,-26.27152 185.90665,-67.932666 V 33.369236 h 53.07162 l 459.21773,433.689784 0.1261,7.34974 c 0.2952,17.2036 -22.501,33.10594 -39.70707,33.17477 l -696.71841,0.34949 z"
       fill="url(#color-1)"
       stroke-width="15.5772"
       id="path28"
       sodipodi:nodetypes="ccccccccsccccsscc"
       style="fill:url(#color-1)" />
    <path
       d="M 8.66871,14.63092 V 26.55516 H 5.26179 v 3.407 h 3.40692 v 3.40692 h 3.40692 v -3.40692 h 23.84866 v 3.40692 h 3.407 v -3.40692 h 3.40692 v -3.407 H 39.33129 V 14.63092 h -3.407 v 2.43591 c -3.06625,2.67448 -7.27378,4.37792 -11.92425,4.37792 -4.65047,0 -8.85816,-1.70344 -11.92441,-4.37792 v -2.43591 z m 27.69075,0.12387 h 2.66851 c 0.09209,-10e-6 0.16676,0.07462 0.1668,0.16671 v 0.66719 c -4e-5,0.09209 -0.07471,0.16672 -0.1668,0.16671 h -2.66851 c -0.09209,10e-6 -0.16676,-0.07462 -0.1668,-0.16671 V 14.9215 c 4e-5,-0.09209 0.07471,-0.16672 0.1668,-0.16671 z M 9.41003,14.90495 h 1.93269 c 0.26685,0 0.48317,0.21633 0.48317,0.48317 v 3.86538 c 0,0.26685 -0.21633,0.48317 -0.48317,0.48317 H 9.41003 c -0.26685,0 -0.48317,-0.21633 -0.48317,-0.48317 v -3.86538 c 0,-0.26685 0.21633,-0.48317 0.48317,-0.48317 z m 27.11623,0.18335 v 0.3336 h 0.33351 v -0.3336 z m 0.6671,0 v 0.3336 h 0.1668 V 15.0883 Z M 9.41003,15.38812 v 0.48317 h 1.93269 v -0.48317 z m 26.94943,0.70089 h 2.66851 c 0.09212,-10e-6 0.16681,0.07467 0.1668,0.1668 v 0.66711 c 1e-5,0.09212 -0.07467,0.16681 -0.1668,0.1668 h -2.66851 c -0.09212,10e-6 -0.16681,-0.07467 -0.1668,-0.1668 v -0.66711 c -10e-6,-0.09212 0.07467,-0.16681 0.1668,-0.1668 z M 9.41003,16.35447 v 0.48317 h 1.93269 v -0.48317 z m 27.11623,0.06813 v 0.33351 h 0.33351 V 16.4226 Z m 0.6671,0 v 0.33351 h 0.1668 V 16.4226 Z m -0.8339,1.0007 h 2.66851 c 0.09212,-10e-6 0.16681,0.07467 0.1668,0.1668 v 0.66711 c 1e-5,0.09212 -0.07467,0.16681 -0.1668,0.1668 h -2.66851 c -0.09212,10e-6 -0.16681,-0.07467 -0.1668,-0.1668 V 17.5901 c -10e-6,-0.09212 0.07467,-0.16681 0.1668,-0.1668 z m 0.1668,0.33352 v 0.3336 h 0.33351 v -0.3336 z m 0.6671,0 v 0.3336 h 0.1668 v -0.3336 z m -26.33381,1.01351 v 0.48317 h 0.48317 v -0.48317 z m 1.21608,0.47693 c 1.03915,0.80061 2.18049,1.4821 3.407,2.04417 v 5.26374 h -3.407 z m 23.84866,0 v 7.3079 h -3.40692 v -5.26374 c 1.2265,-0.5622 2.36784,-1.24356 3.40692,-2.04417 z M 17.18604,21.9899 c 1.09026,0.39197 2.23161,0.68172 3.407,0.88582 v 3.67945 h 1.13564 c -0.3136,2e-5 -0.56784,-0.24759 -0.56786,-0.55305 v -2.76551 c 0,-0.30697 0.25272,-0.55305 0.56786,-0.55305 h 4.54255 c 0.3123,0 0.56786,0.24608 0.56786,0.55305 v 2.76551 c -3e-5,0.30546 -0.25426,0.55307 -0.56786,0.55305 h 1.13564 v -3.67945 c 1.17544,-0.20441 2.3168,-0.49436 3.407,-0.88582 v 4.56526 h -3.407 v 0.55314 h -6.81383 v -0.55314 h -3.407 z m 9.08228,4.01221 c -11.74306,-14.21349 -5.87153,-7.10675 0,0 z m 0,0 V 23.2366 h -4.53964 v 2.76551 z"
       id="path10 1 1"
       fill="none"
       stroke-width="0" />
    <path
       d="m 142.06511,33.36908 v 37.944728 c 42.39841,36.981272 98.80729,62.043792 161.61422,67.207642 5.10403,6.17793 10.68239,12.92972 16.75954,20.28529 2.3006,2.78459 4.6727,5.65578 7.1177,8.61499 h 35.59148 v 43.07898 h -70.71502 v -43.07898 h 35.12354 c -2.40232,-2.90765 -4.77676,-5.7818 -7.1177,-8.61499 h -28.00584 c -4.909,0 -8.84568,3.83325 -8.84568,8.61499 v 43.07898 c 4.7e-4,4.75791 3.96004,8.61468 8.84444,8.61499 h -17.68888 v -57.31564 c -18.30932,-3.17915 -36.08824,-7.69281 -53.07162,-13.79862 v 71.1141 h 53.07162 v 8.61639 H 380.8835 v -8.61639 h 53.07162 v -71.1141 c -16.98214,6.09771 -34.76152,10.61433 -53.07162,13.79862 v 57.31564 h -17.68888 c 4.8844,-3.1e-4 8.84413,-3.85708 8.84444,-8.61499 v -43.07898 c 0,-4.78174 -3.98092,-8.61499 -8.84569,-8.61499 h -42.7545 c -5.82495,-7.05041 -11.44148,-13.84847 -16.75954,-20.28529 7.94765,0.65347 15.99797,0.98822 24.13504,0.98822 72.44144,0 137.98294,-26.53487 185.74678,-68.195862 V 33.36908 h 53.07162 V 219.1157 h 53.07037 v 53.07162 h -53.07037 v 53.07037 H 513.56115 V 272.18732 H 142.06511 v 53.07037 H 88.994733 V 272.18732 H 35.92436 V 219.1157 H 88.994733 V 33.36908 Z m 375.6765,4.526587 v 10.392971 c 6.2e-4,1.434507 1.16377,2.597036 2.59828,2.59688 h 41.56799 c 1.43451,1.56e-4 2.59766,-1.162373 2.59828,-2.59688 V 37.895667 c -6.2e-4,-1.434507 -1.16377,-2.597036 -2.59828,-2.59688 h -41.56799 c -1.43451,-1.56e-4 -2.59766,1.162373 -2.59828,2.59688 z M 93.015995,45.164158 v 60.211912 c 0,4.15678 3.369822,7.52645 7.526445,7.52645 h 30.10596 c 4.15678,0 7.52645,-3.36982 7.52645,-7.52645 V 45.164158 c 0,-4.156784 -3.36982,-7.52645 -7.52645,-7.52645 h -30.10596 c -4.156779,0 -7.526445,3.369822 -7.526445,7.52645 z M 528.13333,40.493793 v 5.196564 h -5.19516 v -5.196564 z m 7.79469,0 v 5.196564 h -2.59828 V 40.493793 Z M 130.6484,45.164158 v 7.52645 h -30.10596 v -7.52645 z m 387.09321,13.51605 v 10.391725 c -1.6e-4,1.434975 1.16315,2.598438 2.59828,2.598282 h 41.56799 c 1.43497,1.56e-4 2.59844,-1.163152 2.59828,-2.598282 V 58.680208 c 1.6e-4,-1.434974 -1.16315,-2.598438 -2.59828,-2.598282 h -41.56799 c -1.43498,-1.56e-4 -2.59844,1.163152 -2.59828,2.598282 z M 130.6484,60.217213 v 7.52645 h -30.10596 v -7.52645 z m 397.48493,1.061277 v 5.195161 h -5.19516 V 61.27849 Z m 7.79469,0 v 5.195161 h -2.59828 V 61.27849 Z M 517.74161,79.464905 V 89.85663 c -1.6e-4,1.434974 1.16315,2.598438 2.59828,2.598282 h 41.56799 c 1.43497,1.56e-4 2.59844,-1.163152 2.59828,-2.598282 V 79.464905 c 1.6e-4,-1.434975 -1.16315,-2.598438 -2.59828,-2.598282 h -41.56799 c -1.43498,-1.56e-4 -2.59844,1.163152 -2.59828,2.598282 z m 10.39172,2.597035 v 5.196564 h -5.19516 V 82.06194 Z m 7.79469,0 v 5.196564 h -2.59828 V 82.06194 Z M 130.6484,97.849618 v 7.526452 h -7.52645 v -7.526452 z m 11.41671,121.266232 h 53.07162 v -81.99448 c -19.10548,-8.75549 -36.88455,-19.37122 -53.07162,-31.8425 z m 318.42566,-81.99448 v 81.99448 h 53.07038 V 105.27902 c -16.18599,12.47129 -33.96491,23.08499 -53.07038,31.84251 z m -168.05789,81.99448 c -4.7e-4,0 -7.8e-4,0 -0.001,0 z m 70.76049,0 h 10e-4 c -4.7e-4,0 -7.8e-4,0 -10e-4,0 z"
       id="path31"
       fill="#ffffff"
       stroke-width="0" />
    <path
       d="M 2,24 C 2,11.84974 11.84974,2 24,2 36.15026,2 46,11.84974 46,24 46,36.15026 36.15026,46 24,46 11.84974,46 2,36.15026 2,24 Z"
       id="base 1 1 1"
       fill="none"
       stroke-width="1" />
    <g
       id="svg8 1 1"
       fill="#000000"
       stroke-width="1"
       font-family="Roboto, sans-serif"
       font-weight="400"
       font-size="14px"
       text-anchor="start">
      <g
         id="layer1 1 1" />
    </g>
    <rect
       x="2"
       y="2"
       width="44"
       height="22"
       fill="none"
       stroke-width="1"
       id="rect36" />
    <path
       d="M 2,24 V 2 h 44 v 22 z"
       fill="none"
       stroke-width="1"
       id="path38" />
    <path
       d="M 2,24 V 2 h 44 v 22 z"
       fill="none"
       stroke-width="1"
       id="path40" />
    <path
       d="M 2,24 V 2 h 44 v 22 z"
       fill="none"
       stroke-width="1"
       id="path42" />
    <path
       d="M 2,24 V 2 h 44 v 22 z"
       fill="none"
       stroke-width="1"
       id="path44" />
  </g>
</svg>
