<?xml version="1.0" encoding="UTF-8"?>
<svg width="108mm" height="108mm" version="1.1" viewBox="0 0 108 108" xmlns="http://www.w3.org/2000/svg" xmlns:cc="http://creativecommons.org/ns#" xmlns:dc="http://purl.org/dc/elements/1.1/" xmlns:rdf="http://www.w3.org/1999/02/22-rdf-syntax-ns#">
 <title>System Bridge</title>
 <metadata>
  <rdf:RDF>
   <cc:Work rdf:about="">
    <dc:format>image/svg+xml</dc:format>
    <dc:type rdf:resource="http://purl.org/dc/dcmitype/StillImage"/>
    <dc:title>System Bridge</dc:title>
   </cc:Work>
  </rdf:RDF>
 </metadata>
 <path d="m32.156 36.837v4.4623c4.9861 4.349 11.62 7.2964 19.006 7.9037 0.60022 0.72653 1.2563 1.5205 1.9709 2.3856 0.27058 0.32748 0.54953 0.66509 0.83704 1.0131h4.1856v5.0661h-8.3161v-5.0661h4.1305c-0.28248-0.34196-0.56179-0.67998-0.83704-1.0131h-3.2935c-0.5773 0-1.0403 0.4508-1.0403 1.0131v5.0661c5.3e-5 0.5595 0.46569 1.0131 1.0401 1.0131h-2.0802v-6.7404c-2.1532-0.37387-4.244-0.90468-6.2413-1.6227v8.3631h6.2413v1.0133h12.482v-1.0133h6.2412v-8.3631c-1.9971 0.71709-4.088 1.2483-6.2412 1.6227v6.7404h-2.0802c0.57438-4.1e-5 1.0401-0.45357 1.0401-1.0131v-5.0661c0-0.56234-0.46818-1.0131-1.0403-1.0131h-5.028c-0.68503-0.82913-1.3455-1.6286-1.9709-2.3856 0.93464 0.07686 1.8814 0.11618 2.8383 0.11618 8.5192 0 16.227-3.1205 21.844-8.0199v-4.4623h6.2413v21.844h6.2411v6.2412h-6.2411v6.2411h-6.2413v-6.2411h-43.688v6.2411h-6.2411v-6.2411h-6.2411v-6.2412h6.2411v-21.844zm44.18 0.53229v1.2222c7.3e-5 0.16873 0.13688 0.3054 0.30554 0.3054h4.8884c0.16873 1.2e-5 0.30548-0.13667 0.30554-0.3054v-1.2222c-7.4e-5 -0.16873-0.13688-0.3054-0.30554-0.3054h-4.8884c-0.16872-2e-5 -0.30547 0.13667-0.30554 0.3054zm-49.948 0.85478v7.081c0 0.48881 0.39631 0.88512 0.88512 0.88512h3.5405c0.48881 0 0.88511-0.39631 0.88511-0.88512v-7.081c0-0.48881-0.39631-0.88512-0.88511-0.88512h-3.5405c-0.48881 0-0.88512 0.39631-0.88512 0.88512zm51.17-0.54926v0.61108h-0.61094v-0.61108zm0.91666 0v0.61108h-0.30554v-0.61108zm-47.661 0.54926v0.88512h-3.5405v-0.88512zm45.522 1.5895v1.2221c-1.7e-5 0.16873 0.13682 0.30554 0.30554 0.30554h4.8884c0.16873 2.2e-5 0.30554-0.13681 0.30554-0.30554v-1.2221c1.7e-5 -0.16873-0.13681-0.30554-0.30554-0.30554h-4.8884c-0.16872-1.4e-5 -0.30554 0.13681-0.30554 0.30554zm-45.522 0.18078v0.88512h-3.5405v-0.88512zm46.744 0.12483v0.61095h-0.61094v-0.61095zm0.91666 0v0.61095h-0.30554v-0.61095zm-2.1387 2.1387v1.2221c-1.7e-5 0.16873 0.13682 0.30561 0.30554 0.30554h4.8884c0.16873 1.9e-5 0.30554-0.13681 0.30554-0.30554v-1.2221c1.7e-5 -0.16873-0.13681-0.30561-0.30554-0.30554h-4.8884c-0.16872-2.1e-5 -0.30554 0.13681-0.30554 0.30554zm1.2221 0.3054v0.61108h-0.61094v-0.61108zm0.91666 0v0.61108h-0.30554v-0.61108zm-47.661 1.8566v0.88512h-0.88512v-0.88512zm1.3426 14.261h6.2413v-9.6426c-2.2468-1.0296-4.3376-2.2781-6.2413-3.7447zm37.447-9.6426v9.6426h6.2411v-13.387c-1.9035 1.4666-3.9943 2.7148-6.2411 3.7447zm-19.764 9.6426h-1.54e-4zm8.3215 0h1.45e-4 -1.45e-4z" fill="#fff" stroke-width="0" style="mix-blend-mode:normal"/>
</svg>
